<svg width="32" height="32" viewBox="0 0 32 32" fill="none" xmlns="http://www.w3.org/2000/svg">
<path d="M20.2791 5.52868C14.6344 3.22208 8.20976 5.80757 5.70665 11.3106L26.63 19.8635C28.698 14.1845 25.9238 7.837 20.2791 5.5304L20.2791 5.52868Z" fill="#036319"/>
<path d="M11.7195 26.4701C17.5023 28.8342 24.1063 26.0625 26.4696 20.2788C26.5262 20.1398 26.5786 20.0016 26.6292 19.8617L5.70584 11.3089C5.64492 11.4437 5.58399 11.5801 5.52821 11.7182C3.16411 17.5011 5.93581 24.1051 11.7195 26.4683V26.4701Z" fill="#036319"/>
<path d="M17.4502 26.5916C17.4013 26.5976 17.3524 26.6053 17.3035 26.6113C17.0632 26.6405 16.8238 26.662 16.5818 26.674C15.3453 26.7418 14.0959 26.5959 12.8979 26.2338C12.4946 26.1136 12.0973 25.9669 11.7086 25.7961C11.5241 25.7163 11.3413 25.6314 11.1594 25.5387C11.1294 25.5224 11.1002 25.5087 11.071 25.4915C10.5124 25.2023 9.97006 24.8591 9.4569 24.4626C9.27241 24.3193 9.09221 24.17 8.91543 24.0121C8.82619 23.9332 8.73781 23.8517 8.64856 23.7693C7.33823 22.5293 6.41146 21.0345 5.87085 19.4332C4.64461 15.8008 5.41348 11.6236 8.22809 8.64934C12.2801 4.36565 19.0635 4.176 23.3489 8.22973C27.6343 12.2834 27.8222 19.0668 23.7685 23.3505C23.0751 24.0833 22.302 24.6969 21.4756 25.1886C21.3598 25.2581 21.2431 25.325 21.1247 25.3885C21.0603 25.4237 20.9977 25.4572 20.9333 25.4889C20.7171 25.6005 20.4991 25.7052 20.2786 25.8021C20.1627 25.8528 20.0451 25.9017 19.9259 25.9489C19.8632 25.9721 19.7997 25.9978 19.7345 26.0201C19.6487 26.0527 19.5637 26.0827 19.4797 26.1119C19.4299 26.1291 19.3818 26.1445 19.3329 26.1608C18.7168 26.3616 18.0844 26.5049 17.4476 26.5925L17.4502 26.5916Z" fill="#3FAA70"/>
<path d="M13.2664 25.0114C12.9111 24.905 12.5602 24.7755 12.2186 24.6261C12.0582 24.5566 11.8986 24.4811 11.739 24.4005L11.7527 24.4073L11.7055 24.3824L11.6866 24.3721L11.6557 24.3567C11.4566 24.2537 11.2619 24.1413 11.0688 24.0238L11.0705 25.4911C11.0997 25.5083 11.1297 25.5229 11.1589 25.5383C11.3399 25.6301 11.5227 25.7168 11.7072 25.7966C12.0977 25.9674 12.495 26.1124 12.8974 26.2334C14.0953 26.5955 15.3448 26.7414 16.5822 26.6727L16.5804 25.3942C16.5598 25.3959 16.5384 25.3967 16.5178 25.3984C15.4083 25.4594 14.3167 25.3289 13.2664 25.0114Z" fill="#1A8B4E"/>
<path d="M17.4497 26.5915L17.4471 25.3C17.9577 25.2202 18.4596 25.1044 18.9393 24.9473C18.9771 24.9336 19.0749 24.901 19.0749 24.901C19.1444 24.8778 19.2139 24.8529 19.2817 24.8263L19.298 24.8203C19.3487 24.8023 19.3984 24.7834 19.4482 24.7646L19.4628 24.7585C19.4628 24.7585 19.4739 24.7543 19.4782 24.7517L19.4799 26.1109C19.4302 26.1281 19.3821 26.1435 19.3332 26.1598C18.7171 26.3606 18.0847 26.5039 17.4479 26.5915H17.4497Z" fill="#1A8B4E"/>
<path d="M21.4744 23.6627C21.2633 23.8138 21.0462 23.9571 20.8231 24.0892C20.7184 24.151 20.6137 24.2111 20.5082 24.2686C20.461 24.2952 20.4181 24.3175 20.3743 24.3389L20.3408 24.3552C20.3194 24.3664 20.2971 24.3767 20.2756 24.3878L20.2765 25.7994C20.4979 25.7033 20.7158 25.5986 20.9312 25.4862C20.9956 25.4545 21.0599 25.421 21.1226 25.3858C21.2401 25.3215 21.3568 25.2545 21.4735 25.1859L21.4727 23.6627L21.4744 23.6627Z" fill="#1A8B4E"/>
<path d="M24.5225 15.7625C24.604 18.6981 23.1838 21.3334 20.9613 22.9295C20.6095 23.1835 20.2362 23.4091 19.8484 23.6065C19.6518 23.7069 19.4519 23.7987 19.2468 23.8837C18.6376 24.136 17.9914 24.3187 17.3178 24.4243C17.0878 24.4603 16.8535 24.4869 16.6184 24.5041C16.4923 24.5135 16.3653 24.5204 16.2366 24.5238C14.3813 24.5753 12.6462 24.0278 11.2183 23.0547C9.02584 21.5676 7.55504 19.0825 7.47609 16.237C7.39715 13.3915 8.72894 10.8292 10.8339 9.22197C12.2069 8.17164 13.9076 7.52806 15.7629 7.47657C15.8916 7.47314 16.0195 7.47228 16.1456 7.47485C16.3824 7.47829 16.6176 7.49202 16.8484 7.51519C17.5263 7.58212 18.1819 7.72971 18.804 7.94682C19.0126 8.01976 19.2176 8.10128 19.4193 8.18966C19.8192 8.36472 20.2028 8.56981 20.5683 8.80321C22.8758 10.2732 24.4401 12.826 24.5216 15.7616L24.5225 15.7625Z" fill="#036319"/>
<path d="M10.9722 9.75671L11.1352 22.3692C11.1824 22.4061 11.2288 22.4422 11.2777 22.4774C11.784 22.8481 12.3357 23.1578 12.9175 23.3998C13.1098 23.4788 13.3063 23.5517 13.5019 23.6152C13.8932 23.7439 14.2931 23.84 14.6913 23.9053C15.3014 24.0057 15.9132 24.034 16.5156 23.9945L16.3097 7.99414C14.3746 7.9212 12.4748 8.55106 10.9731 9.75585L10.9722 9.75671Z" fill="#1A8B4E"/>
<path d="M17.2829 8.09174L17.4862 23.8733C18.1564 23.7471 18.806 23.5369 19.4213 23.2477L19.2333 8.66411C18.6155 8.39294 17.9608 8.19987 17.2829 8.09174Z" fill="#1A8B4E"/>
<path d="M21.3937 21.929L21.2393 9.93429C20.8806 9.62366 20.4978 9.34906 20.0971 9.10965L20.273 22.7819C20.6678 22.5331 21.0436 22.2482 21.3937 21.929Z" fill="#1A8B4E"/>
<path d="M19.2229 8.28966C23.3161 10.0007 25.3318 14.6114 23.8902 18.7458L24.4806 18.9929C26.0578 14.5324 23.8867 9.54851 19.47 7.70099C15.0516 5.85348 9.97932 7.80912 7.91213 12.0645L8.50251 12.3116C10.4333 8.38148 15.1306 6.57772 19.2246 8.28966L19.2229 8.28966Z" fill="#036319"/>
<path d="M12.5287 24.2985C17.1041 26.2121 22.3841 24.0453 24.2977 19.4699C24.3638 19.3111 24.4238 19.1533 24.4805 18.9936L23.8901 18.7465C23.8343 18.907 23.7751 19.0657 23.709 19.2245C21.931 23.4756 17.0261 25.4887 12.775 23.7107C8.52388 21.9327 6.51075 17.0277 8.28875 12.7766C8.35483 12.6179 8.42605 12.4643 8.50071 12.3124L7.91033 12.0652C7.83653 12.218 7.76531 12.3716 7.69923 12.5303C5.78564 17.1058 7.95238 22.3858 12.5278 24.2993L12.5287 24.2985Z" fill="#036319"/>
<path d="M18.6238 21.3572C18.0618 21.3735 17.4988 21.389 16.9359 21.4062C16.9273 21.3941 16.9205 21.3804 16.9102 21.3684C16.5815 20.9797 16.2512 20.591 15.9216 20.2031C14.9631 19.073 14.0046 17.9428 13.0452 16.8135C13.0195 16.7826 13.0066 16.7526 13.0058 16.7123C12.9989 16.4428 12.9903 16.1734 12.9826 15.9048C12.9817 15.8851 12.9809 15.8653 12.9809 15.843C13.0049 15.8413 13.0186 15.8396 13.0341 15.8396C13.2623 15.8327 13.4906 15.8327 13.718 15.8198C13.9883 15.8053 14.2595 15.7915 14.5281 15.7563C14.8996 15.7074 15.2523 15.5899 15.5732 15.3908C15.9937 15.1282 16.2863 14.7687 16.3953 14.277C16.4202 14.1645 16.4253 14.0478 16.4408 13.926C15.1425 13.9629 13.8613 13.9998 12.5716 14.0367C12.5862 14.0118 12.5956 13.9938 12.6068 13.9775C12.7938 13.6771 12.9817 13.3794 13.168 13.0782C13.1911 13.0413 13.2152 13.0258 13.2615 13.0241C14.244 12.9975 15.2266 12.9692 16.2091 12.9409C16.2288 12.94 16.2486 12.9392 16.2743 12.9392C16.2666 12.9194 16.2632 12.9074 16.2563 12.8954C16.1919 12.7967 16.1344 12.6912 16.0598 12.6011C15.8367 12.3282 15.5363 12.1754 15.2008 12.0853C14.813 11.9807 14.4157 11.9609 14.0175 11.9661C13.5369 11.9729 13.0573 11.9892 12.5767 12.0012C12.5578 12.0012 12.539 12.003 12.5115 12.003C12.5287 11.9738 12.5398 11.9558 12.5501 11.9386C12.738 11.6391 12.9243 11.3396 13.1113 11.0393C13.1216 11.0239 13.1276 11.0058 13.1353 10.9895L19.6192 10.8042C19.6115 10.8188 19.6055 10.8351 19.5961 10.8497C19.4047 11.156 19.2125 11.4632 19.022 11.7704C19.0005 11.8056 18.9774 11.8185 18.937 11.8193C18.4033 11.8331 17.8704 11.8494 17.3375 11.8639C17.3178 11.8648 17.2989 11.8648 17.2672 11.8657C17.5452 12.166 17.7074 12.5118 17.7992 12.8954C18.4265 12.8774 19.0503 12.8594 19.6793 12.8413C19.6724 12.8551 19.6682 12.8628 19.6639 12.8688C19.4656 13.1854 19.2683 13.5029 19.0692 13.8187C19.0589 13.8359 19.0289 13.8488 19.0074 13.8496C18.6367 13.8616 18.2669 13.8728 17.8962 13.8814C17.8567 13.8831 17.8395 13.8917 17.8344 13.9346C17.8249 14.0144 17.8121 14.0942 17.794 14.1723C17.6319 14.8974 17.2157 15.4474 16.6124 15.8619C16.0598 16.2412 15.4428 16.448 14.7829 16.5347C14.7126 16.5432 14.6422 16.5518 14.565 16.5621C14.5856 16.5879 14.6001 16.6059 14.6164 16.6239C15.9439 18.1882 17.2706 19.7517 18.5981 21.3161C18.6084 21.3281 18.6161 21.3444 18.6247 21.3581L18.6238 21.3572Z" fill="#025714"/>
<path d="M18.3649 21.2202C17.8029 21.2365 17.2399 21.2519 16.677 21.2691C16.6684 21.2571 16.6616 21.2433 16.6513 21.2313C16.3226 20.8426 15.9922 20.4539 15.6627 20.066C14.7042 18.9359 13.7457 17.8057 12.7863 16.6765C12.7606 16.6456 12.7477 16.6155 12.7469 16.5752C12.74 16.3058 12.7314 16.0363 12.7237 15.7677C12.7228 15.748 12.722 15.7282 12.722 15.7059C12.746 15.7042 12.7597 15.7025 12.7752 15.7025C13.0034 15.6956 13.2317 15.6956 13.4591 15.6828C13.7294 15.6682 14.0006 15.6544 14.2692 15.6193C14.6407 15.5703 14.9934 15.4528 15.3143 15.2537C15.7348 14.9911 16.0274 14.6316 16.1364 14.1399C16.1613 14.0275 16.1664 13.9108 16.1819 13.7889C14.8836 13.8258 13.6024 13.8627 12.3127 13.8996C12.3272 13.8747 12.3367 13.8567 12.3478 13.8404C12.5349 13.5401 12.7228 13.2423 12.909 12.9411C12.9322 12.9042 12.9562 12.8887 13.0017 12.8862C13.9843 12.8596 14.9668 12.8313 15.9493 12.8029C15.9691 12.8021 15.9888 12.8012 16.0146 12.8012C16.0068 12.7815 16.0034 12.7695 15.9965 12.7575C15.9322 12.6588 15.8747 12.5532 15.8 12.4631C15.5769 12.1902 15.2766 12.0375 14.9411 11.9474C14.5532 11.8427 14.1559 11.823 13.7577 11.8281C13.2772 11.835 12.7975 11.8513 12.317 11.8633C12.2981 11.8633 12.2792 11.865 12.2517 11.865C12.2689 11.8358 12.2801 11.8178 12.2903 11.8007C12.4783 11.5012 12.6645 11.2017 12.8516 10.9014C12.8619 10.8859 12.8679 10.8679 12.8756 10.8516C15.0363 10.7898 17.1979 10.7289 19.3595 10.6662C19.3518 10.6808 19.3457 10.6971 19.3363 10.7117C19.1449 11.0181 18.9527 11.3253 18.7622 11.6325C18.7408 11.6677 18.7176 11.6805 18.6773 11.6814C18.1435 11.6951 17.6106 11.7114 17.0778 11.726C17.058 11.7269 17.0391 11.7269 17.0074 11.7277C17.2854 12.0281 17.4476 12.3739 17.5394 12.7575C18.1667 12.7394 18.7905 12.7214 19.4195 12.7034C19.4127 12.7171 19.4084 12.7248 19.4041 12.7309C19.2059 13.0475 19.0085 13.365 18.8094 13.6808C18.7991 13.6979 18.7691 13.7108 18.7476 13.7117C18.3769 13.7237 18.0071 13.7348 17.6364 13.7434C17.5969 13.7451 17.5798 13.7537 17.5746 13.7966C17.5652 13.8764 17.5523 13.9562 17.5343 14.0343C17.3721 14.7594 16.9559 15.3095 16.3527 15.724C15.8 16.1032 15.183 16.31 14.5232 16.3967C14.4528 16.4053 14.3824 16.4139 14.3052 16.4242C14.3258 16.4499 14.3404 16.4679 14.3567 16.486C15.6842 18.0503 17.0108 19.6138 18.3383 21.1781C18.3486 21.1901 18.3563 21.2064 18.3649 21.2202Z" fill="#69D05A"/>
<path d="M10.6938 19.8918C8.39897 20.103 8.22786 20.2741 8.0167 22.5689C7.80554 20.2741 7.63443 20.103 5.3396 19.8918C7.63443 19.6807 7.80554 19.5096 8.0167 17.2147C8.22786 19.5096 8.39897 19.6807 10.6938 19.8918Z" fill="#FFFCFF"/>
<path d="M26.5184 12.9559C24.9833 13.0967 24.8692 13.212 24.7272 14.7471C24.5865 13.212 24.4712 13.0979 22.936 12.9559C24.4712 12.8152 24.5853 12.6999 24.7272 11.1647C24.868 12.6999 24.9833 12.814 26.5184 12.9559Z" fill="#FFFCFF"/>
</svg>
